<svg xmlns="http://www.w3.org/2000/svg" viewBox="0 0 32 32" aria-hidden="true" role="img">
  <defs>
    <linearGradient id="fg" x1="0" y1="1" x2="0" y2="0">
      <stop offset="0%" stop-color="#E85D26"/>
      <stop offset="100%" stop-color="#FFB347"/>
    </linearGradient>
  </defs>
  <path fill="url(#fg)" d="M16 2C14.5 6 12 9.5 12 13.5c0 1.2.4 2.3 1 3.2-.6 1-1 2.2-1 3.3 0 3.3 2.7 6 6 6s6-2.7 6-6c0-1.8-.8-3.4-2-4.5.3-1 .5-2 .5-3C22.5 8 19 4 16 2zm0 22c-2.2 0-4-1.8-4-4 0-1.5.8-2.8 2-3.5-.1.5-.1 1 0 1.5.2 1.1.8 2 2 2s1.8-.9 2-2c.1-.5.1-1 0-1.5 1.2.7 2 2 2 3.5 0 2.2-1.8 4-4 4z"/>
</svg>
